<svg width="24" height="24" viewBox="0 0 24 24" fill="none" xmlns="http://www.w3.org/2000/svg">
<path d="M23.5207 18.3292L20.974 16.6247L18.7101 15.1097C18.2731 14.8179 17.6851 14.9123 17.3614 15.3262L15.9556 17.1268C15.6536 17.5175 15.1114 17.629 14.6798 17.389C13.729 16.8579 12.6045 16.3574 10.1258 13.8666C7.64716 11.3757 7.14755 10.2526 6.61986 9.29995C6.38144 8.86747 6.49485 8.3257 6.88666 8.02516L8.69228 6.62583C9.10735 6.30368 9.20387 5.71597 8.91361 5.27796L7.45313 3.07844L5.71145 0.455665C5.41501 0.00924039 4.82022 -0.125697 4.36018 0.149067L2.34391 1.35373C1.79902 1.67344 1.39798 2.19058 1.22384 2.79791C0.669447 4.80504 0.55042 9.23466 7.63699 16.3468C14.7236 23.459 19.1532 23.3555 21.1623 22.8083C21.7703 22.6364 22.2888 22.2373 22.6105 21.6935L23.8224 19.6816C24.0989 19.2225 23.9661 18.6273 23.5207 18.3292Z" fill="#55A630"/>
<path d="M14.3995 2.80065C18.1533 2.81158 21.1898 5.85906 21.1872 9.61288C21.1868 9.83378 21.3656 10.0132 21.5865 10.0136C21.8074 10.014 21.9869 9.83526 21.9873 9.61432C21.9902 5.41889 18.5964 2.01284 14.401 2.00066C14.1801 2.00026 14.0007 2.17901 14.0003 2.39996C13.9998 2.62081 14.1786 2.80025 14.3995 2.80065Z" fill="#55A630"/>
<path d="M14.428 5.85789C17.0304 5.86563 19.1354 7.97829 19.1338 10.5806C19.1333 10.8173 19.3248 11.0095 19.5616 11.01C19.7982 11.0104 19.9905 10.8189 19.9909 10.5822C19.9929 7.50663 17.5051 5.0098 14.4296 5.00071C14.1929 5.00028 14.0006 5.1918 14.0002 5.42853C13.9998 5.66525 14.1913 5.85746 14.428 5.85789Z" fill="#55A630"/>
<path d="M14.3746 7.7506C15.4096 7.7537 16.2468 8.59394 16.2462 9.62897C16.2458 9.83606 16.4134 10.0043 16.6206 10.0047C16.8276 10.005 16.9959 9.83746 16.9962 9.63032C16.9972 8.18128 15.825 7.00488 14.376 7.00061C14.1689 7.00024 14.0007 7.16782 14.0003 7.37495C13.9999 7.58204 14.1675 7.75023 14.3746 7.7506Z" fill="#55A630"/>
</svg>
